<svg width="500" height="500" viewBox="0 0 500 500" fill="none" xmlns="http://www.w3.org/2000/svg">
<path d="M24.7222 9.61108L28.4999 13.3889L24.7222 17.1666" stroke="black" stroke-width="2" stroke-linecap="round" stroke-linejoin="round"/>
<path d="M11.5 19.0553V17.1664C11.5 16.1645 11.898 15.2036 12.6065 14.4952C13.315 13.7867 14.2758 13.3887 15.2778 13.3887H28.5" stroke="black" stroke-width="2" stroke-linecap="round" stroke-linejoin="round"/>
<path d="M15.2778 30.3891L11.5 26.6113L15.2778 22.8335" stroke="black" stroke-width="2" stroke-linecap="round" stroke-linejoin="round"/>
<path d="M28.5 20.9443V22.8332C28.5 23.8352 28.102 24.796 27.3935 25.5045C26.685 26.213 25.7242 26.611 24.7222 26.611H11.5" stroke="black" stroke-width="2" stroke-linecap="round" stroke-linejoin="round"/>
<path d="M67 28L57 20L67 12L67 28Z" fill="black" stroke="black" stroke-width="2" stroke-linecap="round" stroke-linejoin="round"/>
<path d="M53 27L53 13" stroke="black" stroke-width="2" stroke-linecap="round" stroke-linejoin="round"/>
<path d="M93 12L103 20L93 28V12Z" fill="black" stroke="black" stroke-width="2" stroke-linecap="round" stroke-linejoin="round"/>
<path d="M107 13V27" stroke="black" stroke-width="2" stroke-linecap="round" stroke-linejoin="round"/>
<path d="M332 12L348 28" stroke="white" stroke-width="2" stroke-linecap="round" stroke-linejoin="round"/>
<path d="M348 12L332 28" stroke="white" stroke-width="2" stroke-linecap="round" stroke-linejoin="round"/>
<path d="M211 28.15L213.347 22.45M224.3 28.15L221.953 22.45M221.953 22.45L220.975 20.075L217.65 12L214.325 20.075L213.347 22.45M221.953 22.45H213.346M222.4 12.95H230M224.3 17.7H230M226.2 22.45H230M228.1 27.2H230" stroke="black" stroke-width="2" stroke-linecap="round" stroke-linejoin="round"/>
<path d="M266 28.9998L269 25.9998L266 22.9998" stroke="black" stroke-width="2" stroke-linecap="round" stroke-linejoin="round"/>
<path d="M266 13L269 16L266 19" stroke="black" stroke-width="2" stroke-linecap="round" stroke-linejoin="round"/>
<path d="M269 16H265C263.874 16 262.836 16.3719 262 16.9996M251 26H255C256.126 26 257.164 25.6281 258 25.0004" stroke="black" stroke-width="2" stroke-linecap="round" stroke-linejoin="round"/>
<path d="M251 16H255C257.761 16 260 18.2386 260 21C260 23.7614 262.239 26 265 26H269" stroke="black" stroke-width="2" stroke-linecap="round" stroke-linejoin="round"/>
<path d="M305.222 10L309 13.7778L305.222 17.5556" stroke="black" stroke-width="2" stroke-linecap="round" stroke-linejoin="round"/>
<path d="M292 19.4443V17.5554C292 16.5534 292.398 15.5925 293.106 14.8841C293.815 14.1756 294.776 13.7776 295.778 13.7776H309" stroke="black" stroke-width="2" stroke-linecap="round" stroke-linejoin="round"/>
<path d="M295.778 30.778L292 27.0002L295.778 23.2224" stroke="black" stroke-width="2" stroke-linecap="round" stroke-linejoin="round"/>
<path d="M309 21.3333V23.2221C309 24.2241 308.602 25.185 307.894 25.8934C307.185 26.6019 306.224 26.9999 305.222 26.9999H292" stroke="black" stroke-width="2" stroke-linecap="round" stroke-linejoin="round"/>
<path d="M301.217 23.5519H299.858V20.0419C299.858 19.9399 299.858 19.8139 299.858 19.6639C299.864 19.5139 299.87 19.3609 299.876 19.2049C299.882 19.0429 299.888 18.8959 299.894 18.7639C299.864 18.8059 299.798 18.8749 299.696 18.9709C299.6 19.0609 299.51 19.1419 299.426 19.2139L298.688 19.7989L298.031 18.9889L300.101 17.3419H301.217V23.5519Z" fill="black"/>
<path d="M135 11L145 19L135 27V11Z" fill="white" stroke="white" stroke-width="2" stroke-linecap="round" stroke-linejoin="round"/>
<path d="M176 13V27" stroke="white" stroke-width="3" stroke-linecap="round" stroke-linejoin="round"/>
<path d="M184 13V27" stroke="white" stroke-width="3" stroke-linecap="round" stroke-linejoin="round"/>
</svg>
